<svg width="25" height="23" viewBox="0 0 25 23" fill="none" xmlns="http://www.w3.org/2000/svg">
<path d="M24.541 12.6035C25.1514 11.9932 25.1514 11.002 24.541 10.3916L18.291 4.1416C17.6807 3.53125 16.6895 3.53125 16.0791 4.1416C15.4687 4.75195 15.4687 5.74316 16.0791 6.35352L19.6631 9.9375H9.375C8.51074 9.9375 7.8125 10.6357 7.8125 11.5C7.8125 12.3643 8.51074 13.0625 9.375 13.0625H19.6631L16.0791 16.6465C15.4687 17.2568 15.4687 18.248 16.0791 18.8584C16.6895 19.4688 17.6807 19.4688 18.291 18.8584L24.541 12.6084V12.6035ZM7.8125 3.6875C8.67676 3.6875 9.375 2.98926 9.375 2.125C9.375 1.26074 8.67676 0.5625 7.8125 0.5625H4.6875C2.09961 0.5625 0 2.66211 0 5.25V17.75C0 20.3379 2.09961 22.4375 4.6875 22.4375H7.8125C8.67676 22.4375 9.375 21.7393 9.375 20.875C9.375 20.0107 8.67676 19.3125 7.8125 19.3125H4.6875C3.82324 19.3125 3.125 18.6143 3.125 17.75V5.25C3.125 4.38574 3.82324 3.6875 4.6875 3.6875H7.8125Z" fill="#5A1499"/>
</svg>
