<svg width="16" height="16" viewBox="0 0 16 16" fill="none" xmlns="http://www.w3.org/2000/svg">
<path d="M9.21595 1.47989C9.21595 0.824177 8.68619 0.294418 8.03047 0.294418C7.37476 0.294418 6.845 0.824177 6.845 1.47989V6.81453H1.51036C0.854649 6.81453 0.32489 7.34429 0.32489 8C0.32489 8.65572 0.854649 9.18548 1.51036 9.18548H6.845V14.5201C6.845 15.1758 7.37476 15.7056 8.03047 15.7056C8.68619 15.7056 9.21595 15.1758 9.21595 14.5201V9.18548H14.5506C15.2063 9.18548 15.7361 8.65572 15.7361 8C15.7361 7.34429 15.2063 6.81453 14.5506 6.81453H9.21595V1.47989Z" fill="#A4A8D1"/>
</svg>
